# File created by Blade
# Date/Time:  Thu Sep 25 15:41:58 2014
# Frame Rate: 120.000 fps
#------------------------------------------------------
:FULLY-SPECIFIED
:DEGREES
421
root 6.415084 29.588283 -1.513758 192.104883 -69.395733 -114.438875
Spine 20.253950 16.258049 -14.015965
Head -60.364672 6.838723 11.877313
LeftShoulder 19.184163 -29.209351 42.555838
LeftArm 31.838393 -18.515098 -16.875553
LeftForeArm 3.685916 -0.000000 20.031764
LeftHand -25.143911 -0.000000 0.627257
LeftHandThumb1 -26.253704 0.000000 33.147579
RightShoulder 9.669957 44.680700 -33.267869
RightArm 48.081469 10.244808 40.229864
RightForeArm -16.125633 -0.000000 21.374495
RightHand -6.313712 -0.000000 -5.057267
RightHandThumb1 -24.326973 -0.000000 -32.862282
LeftUpLeg -105.152770 6.475491 0.173193
LeftLeg 63.248107 -0.000000 -0.000000
LeftFoot -37.308770 13.706247 -25.520486
LeftToeBase -5.126517 -0.000000 0.000000
RightUpLeg -34.459666 -1.975608 15.508756
RightLeg 9.717675 -0.000000 -0.000000
RightFoot 1.321363 1.083636 -0.079119
RightToeBase -6.991425 -0.000000 0.000000
422
root 6.032896 29.546490 -1.442162 193.331685 -69.047075 -114.146328
Spine 20.285493 16.019241 -14.728810
Head -61.527284 7.381500 12.004411
LeftShoulder 19.179039 -29.896392 43.220763
LeftArm 29.932921 -18.655264 -15.975458
LeftForeArm 3.889376 -0.000000 20.094813
LeftHand -25.297255 0.000000 1.201090
LeftHandThumb1 -26.253704 0.000000 33.147579
RightShoulder 9.497265 45.276444 -33.626868
RightArm 47.791138 11.091144 39.506708
RightForeArm -15.740100 -0.000000 21.544719
RightHand -6.426138 -0.000000 -5.453020
RightHandThumb1 -24.326973 -0.000000 -32.862282
LeftUpLeg -105.797654 6.431504 0.439161
LeftLeg 63.282644 -0.000000 -0.000000
LeftFoot -38.542909 13.945595 -25.810280
LeftToeBase -4.895881 -0.000000 0.000000
RightUpLeg -34.149488 -3.012238 15.234111
RightLeg 9.568229 -0.000000 -0.000000
RightFoot 3.119721 1.963268 0.156119
RightToeBase -5.810293 -0.000000 0.000000
423
root 5.649094 29.511268 -1.365092 194.554798 -68.683032 -113.767161
Spine 20.236937 15.920278 -15.388578
Head -62.700934 7.739118 12.154904
LeftShoulder 19.200826 -30.338908 43.858970
LeftArm 28.297484 -19.047298 -15.023637
LeftForeArm 3.954293 -0.000000 19.975978
LeftHand -25.542209 -0.000000 2.053121
LeftHandThumb1 -26.253704 0.000000 33.147579
RightShoulder 9.141019 45.747446 -34.082190
RightArm 47.474243 11.985195 38.772569
RightForeArm -15.349769 -0.000000 21.721042
RightHand -6.504102 -0.000000 -5.701920
RightHandThumb1 -24.326973 -0.000000 -32.862282
LeftUpLeg -106.470941 6.397446 0.833880
LeftLeg 63.247137 -0.000000 -0.000000
LeftFoot -39.737518 14.209572 -26.176197
LeftToeBase -4.686836 -0.000000 0.000000
RightUpLeg -33.811927 -4.111394 14.919434
RightLeg 9.450883 -0.000000 -0.000000
RightFoot 4.827787 2.790301 0.208359
RightToeBase -4.746855 -0.000000 0.000000
424
root 5.261746 29.487079 -1.285866 195.723544 -68.323943 -113.278788
Spine 20.184299 15.766241 -15.946359
Head -63.866776 8.048577 12.047557
LeftShoulder 19.149187 -30.779637 44.330636
LeftArm 26.743393 -19.365891 -14.036119
LeftForeArm 3.923108 -0.000000 19.798092
LeftHand -25.699108 -0.000000 2.798161
LeftHandThumb1 -26.253704 0.000000 33.147579
RightShoulder 8.692948 46.395635 -34.742476
RightArm 47.034751 12.702835 38.100194
RightForeArm -15.070058 -0.000000 21.863327
RightHand -6.553143 -0.000000 -5.857369
RightHandThumb1 -24.326973 -0.000000 -32.862282
LeftUpLeg -107.145583 6.384180 1.338323
LeftLeg 63.138150 -0.000000 -0.000000
LeftFoot -40.815710 14.461616 -26.586975
LeftToeBase -4.534274 -0.000000 0.000000
RightUpLeg -33.387692 -5.210748 14.478367
RightLeg 9.357296 -0.000000 -0.000000
RightFoot 6.209410 2.922105 0.823104
RightToeBase -3.225334 -0.000000 0.000000
425
root 4.869202 29.466946 -1.195754 197.093055 -67.889676 -112.953445
Spine 20.060704 15.685618 -16.604012
Head -64.974443 8.373918 11.857545
LeftShoulder 19.083623 -31.449336 44.705339
LeftArm 25.312033 -19.579976 -13.155931
LeftForeArm 3.856847 -0.000000 19.510647
LeftHand -25.968801 0.000000 3.521139
LeftHandThumb1 -26.253704 0.000000 33.147579
RightShoulder 8.127767 46.624478 -35.397142
RightArm 46.919803 13.675866 37.441056
RightForeArm -14.701985 -0.000000 21.930128
RightHand -6.553372 -0.000000 -6.066486
RightHandThumb1 -24.326973 -0.000000 -32.862282
LeftUpLeg -107.826377 6.418440 1.822579
LeftLeg 63.001812 -0.000000 -0.000000
LeftFoot -41.848449 14.706165 -27.040465
LeftToeBase -4.450179 -0.000000 0.000000
RightUpLeg -32.912771 -6.313065 13.827370
RightLeg 9.311606 -0.000000 -0.000000
RightFoot 7.263820 2.229758 0.898986
RightToeBase -2.157955 -0.000000 0.000000
426
root 4.472061 29.458226 -1.099154 198.447587 -67.418843 -112.528400
Spine 19.842632 15.623818 -17.188818
Head -66.063028 8.673075 11.469195
LeftShoulder 19.028613 -32.082244 45.017652
LeftArm 23.981107 -20.115130 -12.509728
LeftForeArm 3.473209 -0.000000 19.208561
LeftHand -26.449977 0.000000 4.244465
LeftHandThumb1 -26.253704 0.000000 33.147579
RightShoulder 7.502775 47.067928 -36.201523
RightArm 46.591448 14.441400 36.877119
RightForeArm -14.462918 -0.000000 22.001143
RightHand -6.796917 -0.000000 -6.812026
RightHandThumb1 -24.326973 -0.000000 -32.862282
LeftUpLeg -108.546495 6.513519 2.351384
LeftLeg 62.814775 -0.000000 -0.000000
LeftFoot -42.739298 14.944949 -27.472924
LeftToeBase -4.461749 -0.000000 0.000000
RightUpLeg -32.431995 -7.436005 13.093420
RightLeg 9.434056 -0.000000 -0.000000
RightFoot 8.155379 1.466018 1.293583
RightToeBase -0.982459 -0.000000 0.000000
